<?xml version="1.0" standalone="no"?>
<!DOCTYPE svg PUBLIC "-//W3C//DTD SVG 20010904//EN"
 "http://www.w3.org/TR/2001/REC-SVG-20010904/DTD/svg10.dtd">
<svg version="1.0" xmlns="http://www.w3.org/2000/svg"
 width="1024.000000pt" height="1024.000000pt" viewBox="0 0 1024.000000 1024.000000"
 preserveAspectRatio="xMidYMid meet">

<g transform="translate(0.000000,1024.000000) scale(0.100000,-0.100000)"
fill="#000000" stroke="none">
<path d="M4280 9701 c-99 -31 -193 -84 -251 -141 -99 -98 -144 -200 -160 -370
-11 -122 -34 -181 -98 -252 -24 -27 -46 -48 -49 -48 -4 0 -7 55 -7 123 0 109
-3 127 -24 172 -32 66 -150 182 -227 223 -34 17 -68 32 -76 32 -23 0 -39 -66
-45 -181 -4 -85 -2 -117 12 -160 34 -105 96 -178 178 -208 16 -6 30 -11 33
-11 9 0 3 98 -11 160 -7 36 -12 66 -11 67 1 1 17 -27 36 -64 40 -78 45 -145
15 -207 -21 -44 -33 -53 -248 -181 -257 -153 -417 -277 -641 -495 -233 -228
-397 -427 -555 -677 -348 -549 -531 -1202 -531 -1899 0 -455 77 -873 241
-1299 119 -312 147 -390 154 -430 l7 -40 -32 38 c-35 42 -126 117 -141 117 -4
0 4 -19 20 -42 28 -42 97 -196 90 -202 -2 -1 -81 -24 -176 -51 -200 -56 -248
-85 -298 -175 l-30 -55 -3 -655 c-1 -397 1 -688 7 -739 12 -94 38 -149 96
-200 20 -17 184 -105 364 -196 l328 -164 7 -49 c17 -131 135 -282 268 -345 76
-36 302 -84 1098 -231 868 -161 1030 -180 1520 -180 490 0 687 26 1790 239
785 152 720 136 817 198 108 67 181 177 205 306 l12 64 339 168 c215 106 352
179 373 200 19 18 45 56 59 83 l25 50 0 714 c0 530 -3 725 -12 756 -8 27 -31
60 -68 96 -54 55 -57 57 -210 103 -85 25 -185 54 -222 64 -38 10 -68 21 -68
26 0 16 130 206 148 216 9 5 14 12 11 15 -13 13 -135 -60 -195 -116 -67 -63
-70 -64 -54 -8 6 19 24 99 40 178 17 78 39 162 50 185 49 101 -142 -178 -200
-293 l-48 -95 5 60 c5 59 13 100 28 140 14 35 -63 -45 -108 -113 l-42 -63 -6
58 c-4 44 -2 63 10 79 9 11 38 50 65 85 66 88 141 246 170 358 l23 93 59 20
c447 148 710 518 691 973 -10 257 -99 462 -270 621 -115 107 -218 148 -275
108 -37 -25 -29 -65 28 -136 151 -191 208 -318 217 -478 11 -211 -64 -396
-227 -560 -64 -64 -105 -96 -166 -127 l-80 -42 -29 97 c-65 217 -209 448 -385
615 -158 150 -316 263 -665 472 -392 235 -503 319 -625 472 l-58 71 -37 -54
c-46 -66 -153 -168 -236 -224 -87 -60 -229 -125 -329 -151 -139 -37 -357 -25
-470 25 -12 5 -20 -5 -33 -41 -29 -82 -19 -143 35 -200 19 -20 21 -36 23 -200
3 -280 51 -443 174 -588 80 -94 87 -116 131 -402 61 -399 71 -581 39 -710 -11
-41 -12 -42 -62 -48 -29 -3 -64 -8 -79 -11 l-26 -5 14 47 c26 86 46 291 39
394 -17 260 -84 396 -309 630 -95 98 -127 139 -151 190 -16 36 -30 66 -31 68
-1 2 -26 -13 -54 -32 -79 -54 -186 -104 -275 -127 -83 -22 -255 -31 -306 -17
-25 7 -28 4 -47 -40 -49 -113 -54 -321 -12 -491 26 -108 89 -268 115 -292 11
-10 31 -30 45 -43 38 -36 160 -400 160 -476 0 -60 -70 -104 -244 -155 -239
-69 -431 -90 -746 -82 -309 8 -505 42 -713 124 -94 38 -127 67 -127 113 0 38
63 252 107 364 42 107 60 130 122 151 58 19 141 34 141 26 -1 -17 -39 -51 -73
-65 -34 -14 -61 -50 -50 -68 7 -13 134 -48 227 -63 218 -36 669 -38 881 -5 89
14 195 45 220 64 27 20 12 44 -45 73 -36 19 -53 38 -91 104 -34 59 -49 97 -53
133 -3 28 -13 121 -22 206 -56 547 -205 952 -446 1218 l-37 41 -78 -16 c-118
-25 -591 -25 -723 1 l-95 18 -68 -74 c-73 -78 -162 -202 -220 -308 -95 -173
-178 -436 -212 -675 -21 -149 -24 -418 -6 -611 l13 -140 -30 -55 c-40 -70 -56
-141 -42 -184 17 -52 43 -59 167 -49 150 12 218 10 288 -11 l60 -18 -185 -28
c-235 -36 -296 -37 -341 -6 -46 30 -69 80 -69 148 0 57 27 153 56 198 15 22
16 44 5 225 -14 239 -9 200 -64 417 -81 315 -107 518 -107 824 0 298 25 519
89 775 39 155 60 208 130 326 212 359 441 541 705 559 61 5 83 1 156 -25 47
-16 69 -27 50 -25 -19 3 -77 8 -127 12 -83 5 -93 4 -93 -11 0 -52 91 -144 167
-170 108 -37 275 -9 382 62 34 23 -129 206 -225 252 -75 37 -173 39 -272 6
-81 -27 -132 -40 -132 -32 0 4 332 226 370 246 16 9 52 13 103 11 103 -4 160
23 249 117 53 56 148 206 136 217 -11 9 -119 25 -177 25 -147 0 -292 -77 -350
-187 -10 -20 -16 -93 -7 -93 2 0 58 27 124 60 65 33 123 60 128 60 27 0 -278
-184 -496 -299 -269 -143 -401 -234 -557 -385 -35 -33 -63 -57 -63 -53 0 26
137 264 233 405 389 570 1013 1015 1694 1210 511 147 1002 167 1509 63 610
-126 1158 -414 1597 -841 l152 -147 43 48 c24 27 64 57 92 70 28 12 50 24 50
27 0 12 -181 199 -280 290 -459 418 -1033 703 -1650 821 -241 46 -345 55 -640
55 -287 1 -343 -3 -590 -45 -181 -30 -468 -107 -614 -165 -17 -6 -16 -2 7 27
14 19 46 80 70 135 37 86 163 291 173 281 2 -1 -12 -35 -31 -73 -39 -83 -98
-245 -91 -252 10 -9 76 9 134 38 105 53 181 154 218 291 20 74 24 286 5 332
-12 31 -25 33 -101 8z m-1135 -4157 c30 -33 45 -82 45 -152 0 -46 -4 -58 -29
-83 -51 -50 -130 -37 -157 26 -16 39 -19 132 -4 169 26 69 100 89 145 40z
m274 2 c15 -8 32 -26 39 -41 15 -33 16 -126 1 -158 -24 -52 -108 -63 -158 -21
-28 23 -31 32 -31 80 0 59 27 125 57 143 25 15 59 13 92 -3z m-513 -238 c43
-38 64 -82 64 -137 0 -32 -6 -44 -31 -65 -54 -45 -113 -26 -150 50 -32 68 -30
130 5 161 37 31 68 29 112 -9z m733 18 c42 -22 54 -43 53 -92 0 -54 -39 -120
-79 -135 -60 -23 -128 24 -126 86 2 60 70 155 111 155 7 0 25 -6 41 -14z
m3432 -98 c-64 -31 -156 -122 -201 -198 -60 -99 -84 -206 -78 -344 6 -133 33
-221 95 -314 l42 -63 -40 32 c-53 42 -111 120 -145 194 -23 49 -28 78 -32 162
-6 127 8 205 54 301 57 118 168 215 279 242 58 15 70 9 26 -12z m-3749 -24
c18 -9 75 -60 128 -114 123 -125 143 -177 99 -266 -39 -81 -131 -102 -291 -64
-50 12 -66 12 -131 -3 -56 -14 -84 -16 -116 -8 -104 23 -151 133 -100 237 30
62 167 188 232 213 64 24 137 26 179 5z m3084 -353 l-15 -145 117 -136 c164
-189 335 -359 409 -404 74 -44 171 -85 210 -88 16 -1 -100 -5 -257 -8 -281 -5
-286 -5 -330 -30 -54 -30 -85 -75 -108 -153 l-17 -58 -75 5 c-41 4 -94 7 -117
8 -47 2 -47 2 -34 27 5 9 17 55 25 102 8 46 35 183 60 304 67 327 108 605 122
820 l8 120 9 -109 c6 -80 4 -149 -7 -255z m-594 132 c109 -135 123 -199 123
-588 -1 -148 -4 -296 -9 -328 l-7 -57 -57 -29 c-97 -49 -138 -85 -158 -136
-19 -50 -27 -47 -38 16 -4 21 -2 48 4 61 9 20 111 103 170 138 13 8 15 63 15
397 l0 388 -56 95 c-88 148 -134 246 -72 155 14 -22 53 -73 85 -112z m-837
-275 c-46 -17 -109 -63 -139 -102 -90 -118 -119 -313 -72 -471 9 -27 13 -51
11 -53 -12 -12 -66 100 -81 166 -30 137 4 278 91 371 58 62 132 98 200 99 13
0 10 -3 -10 -10z m-1210 -93 c54 -53 15 -105 -79 -105 -37 0 -48 4 -62 25 -46
71 79 143 141 80z m-250 -80 c52 -51 16 -89 -95 -102 -43 -5 -49 -3 -55 16
-10 33 12 77 48 95 45 22 74 20 102 -9z m444 14 c29 -10 61 -52 61 -79 0 -21
-41 -50 -70 -50 -85 0 -144 85 -88 124 26 19 53 20 97 5z m-190 -114 c46 -23
55 -71 21 -105 -15 -15 -33 -20 -70 -20 -84 0 -119 62 -65 115 28 29 71 33
114 10z m-429 -53 c48 -39 18 -106 -55 -122 -32 -7 -41 -5 -61 15 -69 69 40
169 116 107z m828 -12 c42 -26 48 -77 12 -114 -17 -18 -23 -18 -62 -7 -56 17
-78 37 -78 74 0 64 63 87 128 47z m-606 -7 c11 -10 18 -30 18 -54 0 -48 -27
-69 -92 -69 -37 0 -50 5 -62 22 -39 55 2 118 75 118 25 0 50 -7 61 -17z m415
-35 c28 -26 30 -68 4 -99 -16 -20 -28 -24 -67 -23 -39 1 -52 6 -71 29 -25 29
-25 63 0 94 30 36 95 36 134 -1z m913 -342 c0 -3 -24 -18 -52 -35 -29 -17 -68
-44 -86 -62 -18 -17 -35 -30 -37 -28 -1 2 2 19 9 38 14 43 53 73 108 82 24 3
46 7 51 8 4 0 7 -1 7 -3z m282 -717 c164 -35 268 -145 320 -337 29 -106 31
-363 4 -467 -51 -195 -167 -319 -334 -354 -109 -23 -274 -7 -354 35 -54 28
-129 106 -159 166 -59 116 -74 195 -74 383 0 131 4 185 18 235 66 242 199 348
439 349 48 1 111 -4 140 -10z m-3064 -226 l2 -213 145 0 145 0 2 213 3 212
129 0 128 0 3 -560 c2 -385 0 -564 -7 -573 -13 -16 -226 -16 -245 0 -10 8 -13
68 -13 239 l0 229 -145 0 -145 0 -2 -237 -3 -238 -122 -2 c-68 -1 -125 2 -127
6 -4 6 -10 1082 -6 1134 0 4 57 6 128 5 l127 -3 3 -212z m1367 102 l0 -110
-187 -3 -188 -2 0 -105 0 -105 163 -2 162 -3 0 -110 0 -110 -162 -3 -163 -2 0
-120 0 -120 198 -2 197 -3 3 -109 c2 -81 -1 -112 -10 -118 -15 -9 -570 -11
-617 -2 l-31 7 0 562 c0 309 3 565 7 568 4 4 146 6 317 5 l311 -3 0 -110z
m768 83 c104 -49 151 -100 187 -208 29 -84 25 -229 -7 -302 -25 -56 -92 -131
-132 -148 l-29 -12 104 -215 c57 -118 101 -219 98 -224 -3 -5 -63 -9 -133 -9
-110 0 -130 3 -143 18 -12 14 -80 163 -157 345 l-20 47 -50 0 -51 0 -2 -202
-3 -203 -114 -3 c-75 -2 -118 1 -127 9 -12 10 -14 105 -14 569 0 306 3 560 7
564 4 4 125 6 268 4 259 -3 260 -3 318 -30z m2383 -1 c34 -16 78 -45 97 -65
131 -135 135 -420 8 -565 -67 -75 -196 -116 -373 -117 l-68 0 -2 -182 -3 -183
-114 -3 c-75 -2 -118 1 -127 9 -12 10 -14 106 -14 576 l0 564 268 -3 267 -3
61 -28z m969 -82 l0 -110 -193 -3 -193 -2 3 -106 3 -105 165 -2 165 -2 0 -110
0 -110 -167 -3 -168 -2 0 -120 0 -120 199 0 c172 0 200 -2 205 -16 3 -9 6 -57
6 -109 0 -67 -4 -96 -14 -104 -10 -9 -101 -11 -327 -9 l-314 3 -7 560 c-4 308
-6 566 -3 573 3 10 73 12 322 10 l318 -3 0 -110z m883 20 c5 -144 13 -135
-133 -135 l-125 0 0 -454 0 -455 -42 -6 c-42 -6 -195 -1 -203 6 -2 2 -5 208
-6 456 l-3 452 -125 3 -126 3 -3 113 -3 112 383 -2 383 -3 3 -90z m-5639
-1450 c79 -40 114 -161 77 -260 -33 -85 -100 -118 -234 -113 l-77 3 -3 185
c-1 101 0 191 3 199 7 19 191 9 234 -14z m306 -175 l0 -195 -37 -3 -38 -3 0
201 0 201 38 -3 37 -4 0 -194z m361 166 c19 -19 34 -43 34 -55 0 -18 -6 -21
-39 -21 -29 0 -40 5 -44 18 -10 43 -87 31 -87 -13 0 -21 8 -29 38 -41 124 -49
142 -67 142 -143 0 -79 -83 -132 -175 -111 -47 10 -95 59 -95 95 0 22 4 25 34
25 25 0 38 -6 50 -24 20 -31 46 -39 80 -26 23 8 27 15 24 42 -3 30 -8 35 -58
53 -30 11 -62 25 -71 30 -56 36 -66 124 -20 174 26 28 35 31 91 31 57 0 65 -3
96 -34z m452 -8 l3 -38 -60 0 -61 0 0 -160 0 -160 -40 0 -40 0 0 160 0 160
-60 0 -60 0 0 33 c0 19 3 37 7 41 4 4 75 6 158 4 l150 -3 3 -37z m344 16 c36
-19 48 -43 48 -99 0 -49 -20 -98 -46 -113 -13 -7 -9 -18 25 -77 22 -38 37 -73
35 -77 -3 -4 -23 -8 -44 -8 -39 0 -40 1 -75 70 -32 63 -38 70 -65 70 l-30 0 0
-71 0 -70 -37 3 -38 3 -3 185 c-1 101 0 191 3 198 7 18 186 7 227 -14z m276
-176 l2 -198 -40 0 -40 0 0 193 c0 107 3 197 7 201 4 4 21 6 38 4 l30 -3 3
-197z m386 179 c47 -31 60 -133 20 -155 -14 -8 -12 -13 10 -35 43 -44 32 -128
-23 -164 -19 -13 -53 -18 -128 -21 l-103 -4 0 202 0 203 100 -6 c65 -3 109
-10 124 -20z m268 -123 c3 -164 12 -184 78 -184 66 0 75 20 77 184 l2 141 36
3 36 3 -3 -165 -3 -166 -32 -32 c-29 -29 -40 -33 -102 -36 -58 -4 -76 -1 -104
17 -53 33 -61 59 -64 220 -2 79 -1 146 1 150 2 3 20 6 39 7 l36 0 3 -142z
m466 -56 l2 -198 -40 0 -40 0 0 193 c0 107 2 196 5 199 3 3 20 5 38 4 l32 -1
3 -197z m400 178 c17 -9 44 -32 59 -53 23 -30 28 -48 31 -107 3 -59 -1 -79
-20 -115 -40 -78 -91 -100 -230 -101 l-78 0 0 193 c0 107 3 197 8 201 13 14
197 -1 230 -18z m538 -12 c54 -43 77 -93 76 -164 -1 -71 -28 -128 -78 -167
-29 -21 -50 -28 -100 -31 -81 -5 -105 1 -150 41 -113 99 -93 270 41 342 22 11
50 15 102 13 62 -3 76 -7 109 -34z m445 16 c69 -32 80 -151 19 -208 l-21 -19
35 -65 c47 -84 46 -90 -6 -86 -42 3 -44 5 -78 70 -30 59 -39 68 -62 68 -28 0
-28 0 -28 -70 l0 -70 -40 0 -40 0 0 193 c0 107 3 197 8 201 11 12 183 1 213
-14z m486 -170 c39 -102 72 -191 72 -197 1 -9 -13 -13 -40 -13 -38 0 -42 2
-56 40 l-16 40 -82 0 -82 0 -12 -40 c-11 -38 -14 -40 -51 -40 -22 0 -40 4 -40
9 0 5 30 85 66 178 36 92 70 177 74 189 7 17 16 21 51 20 l44 -2 72 -184z"/>
<path d="M4995 3051 c-113 -29 -149 -117 -149 -361 0 -271 48 -360 193 -360
135 0 192 81 207 297 13 192 -27 358 -97 401 -39 23 -110 34 -154 23z"/>
<path d="M3910 2885 l0 -167 101 4 c99 4 102 5 129 35 55 61 47 222 -13 267
-23 17 -46 22 -123 24 l-94 4 0 -167z"/>
<path d="M6290 2869 l0 -182 78 5 c150 11 187 46 187 183 0 139 -38 175 -185
175 l-80 0 0 -181z"/>
<path d="M2680 1540 l0 -120 50 0 c40 0 56 5 81 28 39 35 50 101 25 154 -20
42 -51 58 -111 58 l-45 0 0 -120z"/>
<path d="M4152 1603 l3 -58 45 4 c56 4 70 15 70 55 0 44 -16 56 -72 56 l-49 0
3 -57z"/>
<path d="M4820 1625 l0 -45 45 0 c43 0 65 16 65 49 0 22 -33 41 -71 41 l-39 0
0 -45z"/>
<path d="M4820 1465 l0 -55 41 0 c56 0 79 14 79 50 0 41 -24 60 -76 60 l-44 0
0 -55z"/>
<path d="M5940 1540 l0 -120 45 0 c59 0 91 16 110 55 29 63 12 146 -36 170
-15 8 -48 15 -74 15 l-45 0 0 -120z"/>
<path d="M6441 1644 c-87 -73 -42 -234 65 -234 75 0 124 51 124 130 0 23 -7
54 -15 70 -32 62 -121 79 -174 34z"/>
<path d="M6940 1604 l0 -55 52 3 c47 3 54 6 62 30 7 18 6 35 -2 53 -10 22 -18
25 -62 25 l-50 0 0 -56z"/>
<path d="M7418 1565 l-26 -75 55 0 c49 0 54 2 48 18 -4 9 -16 43 -27 75 -11
31 -21 57 -21 57 -1 0 -14 -34 -29 -75z"/>
<path d="M8420 8171 c-247 -99 -612 -252 -712 -298 -72 -33 -81 -41 -172 -151
-52 -65 -104 -128 -115 -142 -21 -25 -21 -25 -33 -5 -23 39 -113 127 -154 151
-106 62 -256 29 -309 -68 -14 -27 -35 -44 -78 -64 -32 -16 -75 -44 -95 -64
l-36 -35 51 -6 c85 -11 160 -39 193 -73 16 -17 52 -76 79 -132 81 -163 202
-278 349 -331 35 -13 118 -37 184 -53 65 -16 125 -33 132 -37 8 -5 35 -36 60
-70 79 -104 189 -192 274 -218 19 -6 22 -3 22 24 l0 30 63 -1 c58 -1 117 17
131 40 3 5 -33 28 -80 52 -46 23 -83 44 -81 46 2 2 41 -4 88 -12 95 -18 173
-11 253 25 45 19 61 41 32 41 -30 0 -263 101 -370 161 -120 67 -195 116 -293
189 l-62 47 82 22 c93 24 179 65 239 112 l41 33 -59 16 -59 17 81 5 c94 7 145
29 194 85 l34 38 -35 3 c-18 1 -54 5 -79 9 l-45 6 65 13 c90 19 166 60 213
117 22 26 38 49 36 51 -3 3 -22 1 -44 -4 -22 -5 -69 -9 -105 -9 l-65 1 66 13
c120 24 186 74 233 175 35 75 34 82 -11 60 -21 -10 -63 -21 -93 -24 l-55 -7
61 31 c69 34 122 86 157 157 27 53 43 113 30 113 -4 0 -96 -36 -203 -79z
m-1362 -578 c-3 -30 -25 -42 -34 -19 -9 22 2 46 21 46 12 0 15 -8 13 -27z"/>
<path d="M5290 7689 c-130 -22 -248 -113 -289 -222 -11 -32 -21 -64 -21 -72 0
-8 -20 -26 -44 -40 -34 -20 -65 -27 -152 -35 -341 -32 -383 -65 -314 -247 16
-43 36 -104 45 -135 28 -103 118 -191 229 -223 28 -8 116 -23 195 -34 168 -22
181 -29 230 -123 28 -55 34 -79 38 -153 l6 -87 36 -16 c28 -13 68 -16 176 -16
123 0 151 4 228 27 200 61 410 198 537 349 l47 57 -33 66 c-19 37 -34 75 -34
85 0 34 -14 29 -74 -28 -83 -77 -188 -151 -247 -173 -72 -27 -170 -25 -235 5
-80 37 -135 124 -156 245 -16 94 3 179 76 345 31 69 56 136 56 148 0 13 5 30
10 38 7 11 10 -5 10 -52 0 -49 -9 -96 -36 -180 -65 -205 -57 -353 26 -441 l39
-42 93 0 c86 1 98 3 153 33 130 70 295 216 328 291 23 53 19 118 -12 179 -25
50 -214 275 -281 335 -54 48 -117 75 -245 102 -88 19 -312 27 -385 14z m-162
-361 c7 -7 12 -22 12 -35 0 -17 -6 -23 -23 -23 -22 0 -47 16 -47 31 0 10 29
39 39 39 4 0 12 -5 19 -12z"/>
<path d="M3165 6636 c-22 -7 -70 -27 -107 -45 -101 -49 -128 -50 -223 -5 -67
32 -91 38 -147 39 -61 0 -70 -3 -95 -28 -24 -23 -28 -36 -28 -81 0 -45 9 -71
52 -158 29 -56 76 -134 105 -173 l53 -70 95 -16 c53 -9 133 -19 178 -22 l82
-6 1 112 1 112 19 -65 c11 -36 24 -86 30 -112 l11 -48 66 1 c124 1 141 7 175
68 17 30 41 81 54 115 l23 61 -6 -65 c-3 -36 -10 -83 -15 -105 -14 -65 -16
-63 69 -49 73 12 79 16 118 59 46 52 152 226 178 293 9 23 16 60 16 81 0 105
-126 141 -276 78 -33 -14 -84 -28 -115 -32 -52 -6 -62 -4 -125 28 -81 42 -134
51 -189 33z"/>
<path d="M4426 6268 c-9 -20 -22 -76 -31 -124 -8 -48 -16 -88 -18 -89 -1 -1
-18 -8 -37 -15 -70 -28 -145 -116 -164 -192 -3 -15 -21 -35 -41 -48 -57 -35
-85 -76 -85 -125 0 -26 6 -47 15 -55 9 -8 15 -29 15 -56 0 -58 38 -100 138
-152 88 -47 119 -72 128 -107 l6 -25 117 4 c181 8 273 36 411 127 l75 50 -3
107 c-4 134 -26 271 -52 322 -11 22 -20 50 -20 63 0 39 -40 178 -67 233 -14
29 -40 66 -57 83 l-32 31 -39 -71 c-22 -39 -53 -87 -71 -107 l-31 -36 -37 71
c-21 40 -53 89 -71 110 l-33 38 -16 -37z m-91 -478 c0 -16 -6 -26 -18 -28 -19
-4 -32 20 -23 44 9 25 41 13 41 -16z"/>
<path d="M8123 4525 c-3 -9 -3 -18 -1 -21 3 -3 8 4 11 16 6 23 -1 27 -10 5z"/>
<path d="M8091 4429 c-6 -18 -9 -34 -7 -36 2 -2 9 10 15 28 6 18 9 34 7 36 -2
2 -9 -10 -15 -28z"/>
<path d="M8051 4329 c-12 -29 -20 -54 -18 -56 2 -2 14 20 26 48 12 29 20 54
18 56 -2 2 -14 -20 -26 -48z"/>
<path d="M8007 4233 c-4 -3 -7 -11 -7 -17 0 -6 5 -5 12 2 6 6 9 14 7 17 -3 3
-9 2 -12 -2z"/>
<path d="M7975 4169 c-9 -17 -15 -33 -13 -35 3 -2 12 12 21 31 21 43 13 47 -8
4z"/>
<path d="M2930 4045 c-22 -69 -43 -145 -46 -169 l-6 -43 63 -25 c201 -80 433
-113 789 -112 187 1 264 6 375 22 234 36 405 93 405 136 0 27 -34 149 -67 244
-21 58 -29 72 -42 66 -9 -4 -52 -19 -96 -35 -304 -107 -954 -101 -1245 12 -41
16 -78 29 -82 29 -4 0 -25 -56 -48 -125z"/>
<path d="M7940 4100 c-6 -11 -8 -20 -6 -20 3 0 10 9 16 20 6 11 8 20 6 20 -3
0 -10 -9 -16 -20z"/>
<path d="M7887 4010 c-19 -33 -33 -60 -31 -60 7 0 76 111 71 116 -2 2 -20 -23
-40 -56z"/>
<path d="M7830 3925 c-7 -9 -11 -17 -9 -20 3 -2 10 5 17 15 14 24 10 26 -8 5z"/>
</g>
</svg>
